# xmcd
#
# Track frame offsets:
#	150
#	17492
#	30267
#	48749
#	67261
#	83463
#	100873
#	121928
#	137830
#	151752
#
# Disc length: 2257 seconds
#
# Revision: 1
# Processed by: cddbd v1.5.2PL0 Copyright (c) Steve Scherf et al.
# Submitted via: audiograbber 1.83.01
#
DISCID=7408cf0a
DTITLE=Joe Cocker - Hymn For My Soul
DYEAR=2007
DGENRE=R&B/Soul
TTITLE0=You Haven't Done Nothin'
TTITLE1=One Word (Peace)
TTITLE2=Love Is For Me
TTITLE3=Don't Give Up On Me
TTITLE4=Long As I Can See The Light
TTITLE5=Beware Of Darkness
TTITLE6=Just Pass It On
TTITLE7=Rivers Invitation
TTITLE8=Ring Them Bells
TTITLE9=Hymn 4 My Soul
EXTD=
EXTT0=
EXTT1=
EXTT2=
EXTT3=
EXTT4=
EXTT5=
EXTT6=
EXTT7=
EXTT8=
EXTT9=
PLAYORDER=
